<!DOCTYPE svg PUBLIC "-//W3C//DTD SVG 1.1//EN" "http://www.w3.org/Graphics/SVG/1.1/DTD/svg11.dtd">
<!-- Uploaded to: SVG Repo, www.svgrepo.com, Transformed by: SVG Repo Mixer Tools -->
<svg fill="#ffffff" height="800px" width="800px" version="1.1" id="Layer_1" xmlns="http://www.w3.org/2000/svg" xmlns:xlink="http://www.w3.org/1999/xlink" viewBox="-102.4 -102.4 716.81 716.81" xml:space="preserve" stroke="#ffffff" transform="matrix(1, 0, 0, 1, 0, 0)">
<g id="SVGRepo_bgCarrier" stroke-width="0" transform="translate(0,0), scale(1)">
<rect x="-102.4" y="-102.4" width="716.81" height="716.81" rx="358.405" fill="#000000" strokewidth="0"/>
</g>
<g id="SVGRepo_tracerCarrier" stroke-linecap="round" stroke-linejoin="round" stroke="#CCCCCC" stroke-width="20.480520000000002"/>
<g id="SVGRepo_iconCarrier"> <g> <g> <g> <path d="M333.351,207.684c-5.938-27.443-24.149-48.717-47.198-58.489C291.262,115.343,317.755,90,348.95,90 c30.726,0,56.89,24.588,62.552,57.676c-32.331,10.293-55.542,42.204-55.542,79.448c0,11.782,9.551,21.333,21.333,21.333 c11.782,0,21.333-9.551,21.333-21.333c0-22.62,16.247-40.277,35.349-40.277c19.121,0,35.371,17.655,35.371,40.277 c0,11.782,9.551,21.333,21.333,21.333c11.782,0,21.333-9.551,21.333-21.333c0-37.991-24.149-70.427-57.501-80.038 c-6.439-55.931-50.9-99.753-105.563-99.753c-53.86,0-97.813,42.545-105.252,97.298c-1.549,0.294-3.1,0.633-4.651,1.031 c-19.695,5.031-35.731,17.525-46.215,33.923c-24.998-1.854-49.892,9.171-66.204,30.691c-9.133,12.059-14.586,26.04-16.492,40.377 c-37.91-1.421-74.757,18.985-95.04,55.29c-29.771,53.217-14.231,122.427,35.364,155.2c9.83,6.496,23.064,3.793,29.56-6.037 s3.793-23.064-6.037-29.56c-30.677-20.272-40.669-64.775-21.645-98.784c13.644-24.423,38.583-36.649,62.899-32.832 c4.622,11.971,11.94,22.967,21.888,31.87c8.779,7.857,22.266,7.11,30.124-1.67s7.11-22.266-1.67-30.124 c-5.918-5.297-9.95-12.286-11.992-19.874c-0.158-1.52-0.479-3.01-0.951-4.447c-1.884-11.546,0.659-23.95,8-33.644 c5.06-6.675,11.66-11.036,18.731-12.922c-0.257,7.18,0.343,14.5,1.924,21.811c2.491,11.516,13.846,18.831,25.362,16.34 s18.831-13.846,16.34-25.362c-4.812-22.24,7.608-44.052,26.626-48.91c18.394-4.711,37.342,8.042,42.03,29.708 c2.491,11.516,13.846,18.831,25.362,16.34C328.527,230.555,335.842,219.2,333.351,207.684z"/> <path d="M469.646,367.551c-7.709-36.914-38.571-64.919-76.163-64.919c-43.496,0-78.016,37.517-78.016,82.944 c0,11.782,9.551,21.333,21.333,21.333c11.782,0,21.333-9.551,21.333-21.333c0-22.62,16.247-40.277,35.349-40.277 c14.245,0,26.892,9.802,32.417,24.154c-22.226,10.02-37.548,33.375-37.548,60.136c0,11.782,9.551,21.333,21.333,21.333 s21.333-9.551,21.333-21.333c0-12.896,8.998-22.677,19.157-22.677s19.157,9.781,19.157,22.677 c0,11.782,9.551,21.333,21.333,21.333S512,441.37,512,429.588C512,400.941,494.436,376.212,469.646,367.551z"/> </g> </g> </g> </g>
</svg>