<!DOCTYPE svg PUBLIC "-//W3C//DTD SVG 1.1//EN" "http://www.w3.org/Graphics/SVG/1.1/DTD/svg11.dtd">
<!-- Uploaded to: SVG Repo, www.svgrepo.com, Transformed by: SVG Repo Mixer Tools -->
<svg width="250px" height="250px" viewBox="-4.8 -4.8 25.60 25.60" xmlns="http://www.w3.org/2000/svg" fill="#ffffff" class="bi bi-clouds" stroke="#ffffff" stroke-width="0.00016">
<g id="SVGRepo_bgCarrier" stroke-width="0" transform="translate(0,0), scale(1)">
<rect x="-4.8" y="-4.8" width="25.60" height="25.60" rx="12.8" fill="#000000" strokewidth="0"/>
</g>
<g id="SVGRepo_tracerCarrier" stroke-linecap="round" stroke-linejoin="round" stroke="#CCCCCC" stroke-width="0.192"/>
<g id="SVGRepo_iconCarrier"> <path d="M16 7.5a2.5 2.5 0 0 1-1.456 2.272 3.513 3.513 0 0 0-.65-.824 1.5 1.5 0 0 0-.789-2.896.5.5 0 0 1-.627-.421 3 3 0 0 0-5.22-1.625 5.587 5.587 0 0 0-1.276.088 4.002 4.002 0 0 1 7.392.91A2.5 2.5 0 0 1 16 7.5z"/> <path d="M7 5a4.5 4.5 0 0 1 4.473 4h.027a2.5 2.5 0 0 1 0 5H3a3 3 0 0 1-.247-5.99A4.502 4.502 0 0 1 7 5zm3.5 4.5a3.5 3.5 0 0 0-6.89-.873.5.5 0 0 1-.51.375A2 2 0 1 0 3 13h8.5a1.5 1.5 0 1 0-.376-2.953.5.5 0 0 1-.624-.492V9.5z"/> </g>
</svg>